# xmcd CD database file
#
# Track frame offsets:
#	150
#	21947
#	39512
#	50585
#
# Disc length: 938 seconds
#
# Revision: 0
# Processed by: cddbd v1.5.1PL2 Copyright (c) Steve Scherf et al.
# Submitted via: CDex 1.51
#
DISCID=2d03a804
DTITLE=THE KIDS - 14 SPEED
DYEAR=1998
DGENRE=Rock
TTITLE0=14SPEED
TTITLE1=幸福(シアワセ)のカタチ
TTITLE2=ザ・ピンチ(INstrumental)
TTITLE3=カリフォルニア・プレシャス・フィーリング
EXTD=YEAR: 1998
EXTT0=
EXTT1=
EXTT2=
EXTT3=
PLAYORDER=
